<svg
  width="36"
  height="36"
  viewBox="0 0 36 36"
  fill="none"
  xmlns="http://www.w3.org/2000/svg"
>
  <rect width="36" height="36" rx="8" fill="#F85050" />
  <path
    fill-rule="evenodd"
    clip-rule="evenodd"
    d="M12.3371 11.9328C12.7277 12.3233 12.7278 12.9564 12.3373 13.347C11.2188 14.4659 10.4571 15.8914 10.1486 17.4432C9.84018 18.995 9.99876 20.6034 10.6043 22.065C11.2099 23.5267 12.2353 24.7759 13.5508 25.6549C14.8664 26.5338 16.413 27.0029 17.9951 27.0029C19.5773 27.0029 21.1239 26.5338 22.4394 25.6549C23.7549 24.7759 24.7803 23.5267 25.3859 22.065C25.9915 20.6034 26.1501 18.995 25.8416 17.4432C25.5331 15.8914 24.7715 14.4659 23.6529 13.347C23.2624 12.9564 23.2625 12.3233 23.6531 11.9328C24.0437 11.5423 24.6769 11.5424 25.0673 11.933C26.4655 13.3317 27.4176 15.1135 27.8032 17.0532C28.1888 18.993 27.9906 21.0035 27.2336 22.8305C26.4766 24.6576 25.1949 26.2192 23.5505 27.3179C21.9061 28.4165 19.9728 29.0029 17.9951 29.0029C16.0174 29.0029 14.0842 28.4165 12.4398 27.3179C10.7953 26.2192 9.51361 24.6576 8.75664 22.8305C7.99967 21.0035 7.80144 18.993 8.18703 17.0532C8.57262 15.1135 9.5247 13.3317 10.9229 11.933C11.3134 11.5424 11.9465 11.5423 12.3371 11.9328Z"
    fill="white"
  />
  <path
    fill-rule="evenodd"
    clip-rule="evenodd"
    d="M18 7C18.5523 7 19 7.44772 19 8V18C19 18.5523 18.5523 19 18 19C17.4477 19 17 18.5523 17 18V8C17 7.44772 17.4477 7 18 7Z"
    fill="white"
  />
</svg>
